<?xml version="1.0" encoding="utf-8"?>
<!-- Generator: Adobe Illustrator 27.5.0, SVG Export Plug-In . SVG Version: 6.00 Build 0)  -->
<svg version="1.1" id="Calque_1" xmlns="http://www.w3.org/2000/svg" xmlns:xlink="http://www.w3.org/1999/xlink" x="0px" y="0px"
	 viewBox="0 0 111.5 76.3" style="enable-background:new 0 0 111.5 76.3;" xml:space="preserve">
<style type="text/css">
	.st0{fill:#1E85F1;}
</style>
<g transform="translate(0)">
	<path class="st0" d="M58.7,8.3V6.1h3V4.6C61.9,1.9,64.3-0.2,67,0c2.5,0.2,4.4,2.1,4.6,4.6v1.4h2.9v2.3H58.7z"/>
	<path class="st0" d="M84.9,55.1c-5.8,0-10.6,4.7-10.6,10.6c0,5.8,4.7,10.6,10.6,10.6c5.8,0,10.6-4.7,10.6-10.6c0,0,0,0,0,0
		C95.4,59.8,90.7,55.1,84.9,55.1z M84.9,70.7c-2.8,0-5.1-2.3-5.1-5.1s2.3-5.1,5.1-5.1c2.8,0,5.1,2.3,5.1,5.1c0,0,0,0,0,0
		C89.9,68.5,87.7,70.7,84.9,70.7L84.9,70.7z"/>
	<path class="st0" d="M24.2,55c-5.8,0-10.6,4.7-10.6,10.6c0,5.8,4.7,10.6,10.6,10.6c5.8,0,10.6-4.7,10.6-10.6
		C34.8,59.7,30.1,55,24.2,55C24.2,55,24.2,55,24.2,55z M24.3,70.7c-2.8,0-5.1-2.3-5.1-5.1c0-2.8,2.3-5.1,5.1-5.1
		c2.8,0,5.1,2.3,5.1,5.1C29.3,68.4,27.1,70.6,24.3,70.7L24.3,70.7z"/>
	<path class="st0" d="M102.6,35.6c3.2,0.6,5.1,2,6.5,9.8l2.3,14.1c0.8,4.6-1.8,6.3-5,6.3h-7.8c0-7.6-6.2-13.8-13.8-13.8
		s-13.8,6.2-13.8,13.8H38c0.1-7.6-5.9-13.9-13.5-14s-13.9,5.9-14,13.5c0,0.2,0,0.3,0,0.5H4c-2.2,0.1-4-1.7-4-3.8c0,0,0-0.1,0-0.1
		V15.5c0-2.5,2-4.5,4.4-4.6c0,0,0,0,0,0h83.2c2.9-0.1,5.6,1.6,6.6,4.3L102.6,35.6z M74.9,15.6v19.2h22.2l-7.8-19.2H74.9z M55,32.4
		V20.6H43.2v11.8H31.4v11.8h11.8V56H55V44.2h11.8V32.4H55z"/>
</g>
</svg>
