<svg xmlns="http://www.w3.org/2000/svg" width="60.414" height="67.965" viewBox="0 0 60.414 67.965"><path d="M165.664,295.646H214.75v-15.1H184.543V261.664H175.1a9.348,9.348,0,0,0-9.44,9.44ZM190.23,318.3a32.285,32.285,0,0,0,4.271-.283,24.516,24.516,0,0,0,4.2-.944V301.31H181.711v15.764a24.446,24.446,0,0,0,4.224.944A32.82,32.82,0,0,0,190.23,318.3Zm-.024,5.664a35.768,35.768,0,0,1-13.612-2.643,39.49,39.49,0,0,1-11.781-7.457l4.059-4.059a32.33,32.33,0,0,0,3.407,2.726,35.4,35.4,0,0,0,3.767,2.277v-13.5H165.664A5.807,5.807,0,0,1,160,295.646V271.1A15.148,15.148,0,0,1,175.1,256h15.1v18.879H214.75a5.807,5.807,0,0,1,5.664,5.664v15.1a5.807,5.807,0,0,1-5.664,5.664H204.366v13.5q1.966-1.067,3.768-2.28a26.79,26.79,0,0,0,3.407-2.723l4.059,4.059a39.489,39.489,0,0,1-11.781,7.457A35.768,35.768,0,0,1,190.207,323.965ZM190.207,278.655Z" transform="translate(-160 -256)" fill="#fff"/></svg>