<svg xmlns="http://www.w3.org/2000/svg" width="45.824" height="65.463" viewBox="0 0 45.824 65.463"><path d="M204.91,238.189a4.924,4.924,0,0,1-4.91-4.91V194.82a5.745,5.745,0,0,1,5.728-5.728h7.365V178.455a2.04,2.04,0,0,1,1.009-1.8,4.071,4.071,0,0,1,2.264-.655h13.093a4.071,4.071,0,0,1,2.264.655,2.04,2.04,0,0,1,1.009,1.8v10.638h8.183a4.924,4.924,0,0,1,4.91,4.91V233.28a4.924,4.924,0,0,1-4.91,4.91,3.273,3.273,0,1,1-6.546,0H211.456a3.273,3.273,0,1,1-6.546,0Zm11.456-49.1h13.093v-9.819H216.366ZM204.91,233.28h36V194h-36Zm5.728-4.91h3.273V198.912h-3.273Zm10.638,0h3.273V198.912h-3.273Zm10.638,0h3.273V198.912h-3.273Zm-27,4.91v0Z" transform="translate(-200 -176)" fill="#fff"/></svg>