<svg xmlns="http://www.w3.org/2000/svg" xmlns:xlink="http://www.w3.org/1999/xlink" width="46.911" height="41.129" viewBox="0 0 46.911 41.129"><defs><filter id="a" x="0" y="0" width="46.911" height="41.129" filterUnits="userSpaceOnUse"><feOffset dy="3" input="SourceAlpha"/><feGaussianBlur stdDeviation="3" result="b"/><feFlood flood-opacity="0.161"/><feComposite operator="in" in2="b"/><feComposite in="SourceGraphic"/></filter></defs><g transform="matrix(1, 0, 0, 1, 0, 0)" filter="url(#a)"><path d="M4,16.312V10.168a2.08,2.08,0,0,1,.651-1.518A2.08,2.08,0,0,1,6.168,8H30.743a2.223,2.223,0,0,1,2.168,2.168v6.144H30.743V10.168H6.168v6.144ZM6.168,31.129a2.08,2.08,0,0,1-1.518-.651A2.08,2.08,0,0,1,4,28.961V22.817H6.168v6.144H30.743V22.817h2.168v6.144a2.223,2.223,0,0,1-2.168,2.168Zm9.4-4.7a1.176,1.176,0,0,0,.56-.145.967.967,0,0,0,.416-.434l4.807-9.613,1.915,3.831a.967.967,0,0,0,.416.434,1.176,1.176,0,0,0,.56.145h8.673V18.48H24.925l-2.6-5.168a.87.87,0,0,0-.416-.416,1.3,1.3,0,0,0-1.12,0,.87.87,0,0,0-.416.416l-4.807,9.577-1.915-3.831a.967.967,0,0,0-.416-.434,1.176,1.176,0,0,0-.56-.145H4v2.168h7.987l2.6,5.2a.967.967,0,0,0,.416.434,1.176,1.176,0,0,0,.56.145ZM18.456,19.565Z" transform="translate(5 -2)" fill="red"/></g></svg>