<svg xmlns="http://www.w3.org/2000/svg" width="66.808" height="65.973" viewBox="0 0 66.808 65.973"><path d="M166.765,258.59a9.979,9.979,0,1,1,7.1-2.923A9.664,9.664,0,0,1,166.765,258.59Zm0-5.011a4.921,4.921,0,1,0-3.57-1.441A4.848,4.848,0,0,0,166.765,253.579Zm-20.042,28.393v-9.687a6.833,6.833,0,0,1,.835-3.3,6.414,6.414,0,0,1,2.338-2.464,36,36,0,0,1,4.844-2.464,36.394,36.394,0,0,1,5.178-1.712l6.848,8.852,6.848-8.852a34.74,34.74,0,0,1,5.136,1.712,37.246,37.246,0,0,1,4.8,2.464,6.735,6.735,0,0,1,2.38,2.464,6.577,6.577,0,0,1,.877,3.3v9.687Zm5.011-5.011h13.111L158,268.11q-1.67.668-3.257,1.461a31.271,31.271,0,0,0-3.006,1.712Zm16.952,0H181.8v-5.679q-1.42-.919-2.965-1.712t-3.215-1.461ZM164.845,276.962ZM168.686,276.962Zm-43.676-.835A5.025,5.025,0,0,1,120,271.116V221.011A5.025,5.025,0,0,1,125.011,216h50.106a5.025,5.025,0,0,1,5.011,5.011v20.627a17.137,17.137,0,0,0-2.171-3.09,15.263,15.263,0,0,0-2.839-2.505V221.011H125.011v50.106h16.7v5.011Zm8.351-41.755h28.477a14.12,14.12,0,0,1,2.408-.626,15.138,15.138,0,0,1,2.519-.209v-4.175h-33.4Zm0,14.2h18.372a15.98,15.98,0,0,1,.209-2.547,13.881,13.881,0,0,1,.626-2.464H133.362Zm0,14.2h13.195a15.066,15.066,0,0,1,3.006-1.8q1.587-.71,3.257-1.378v-1.837H133.362Zm-8.351,8.351v0ZM166.765,248.569Z" transform="translate(-120 -216)" fill="#fff"/></svg>