<svg xmlns="http://www.w3.org/2000/svg" width="70.545" height="64.052" viewBox="0 0 70.545 64.052"><path d="M74.872,236.242a2.616,2.616,0,0,0,.922-.2,2.378,2.378,0,0,0,.842-.521l27.015-27.1a6.859,6.859,0,0,0,1.563-2.378,7.307,7.307,0,0,0,.521-2.672,7.585,7.585,0,0,0-.521-2.726,6.8,6.8,0,0,0-1.563-2.4l-14.43-14.43a6.8,6.8,0,0,0-2.4-1.563,7.585,7.585,0,0,0-2.726-.521,7.308,7.308,0,0,0-2.672.521,6.859,6.859,0,0,0-2.378,1.563L77.6,185.257l6.493,6.573a12.63,12.63,0,0,1,1.844,2.605,6.718,6.718,0,0,1,.8,3.247,7.317,7.317,0,0,1-2.365,5.371,7.508,7.508,0,0,1-5.411,2.325,7.324,7.324,0,0,1-5.747-2.312L67.336,197.2l-14.51,14.51a2.319,2.319,0,0,0-.561.844,2.769,2.769,0,0,0-.16.949,2.328,2.328,0,0,0,2.378,2.375,1.95,1.95,0,0,0,.949-.24,3.308,3.308,0,0,0,.762-.561l11.063-11.063,3.367,3.367L59.64,218.365a2.25,2.25,0,0,0-.561.882,3.026,3.026,0,0,0-.16.962,2.466,2.466,0,0,0,2.4,2.4,2.2,2.2,0,0,0,.922-.2,2.567,2.567,0,0,0,.762-.521L74.07,210.829l3.367,3.367L66.454,225.179a2.4,2.4,0,0,0-.521.828,2.748,2.748,0,0,0-.2,1.015,2.466,2.466,0,0,0,2.4,2.4,2.354,2.354,0,0,0,.882-.16,2.443,2.443,0,0,0,.8-.561l11.063-11.063,3.367,3.367L73.188,232.073a2.25,2.25,0,0,0-.561.882,2.808,2.808,0,0,0-.16.882,2.219,2.219,0,0,0,2.4,2.4Zm.005,4.81a6.719,6.719,0,0,1-4.735-1.964,7.986,7.986,0,0,1-2.485-4.86,7.86,7.86,0,0,1-6.814-6.8,7.614,7.614,0,0,1-4.529-2.285,8.155,8.155,0,0,1-2.2-4.529,8.055,8.055,0,0,1-4.89-2.4,6.7,6.7,0,0,1-1.924-4.81,7.393,7.393,0,0,1,.539-2.73,7.188,7.188,0,0,1,1.545-2.4l17.957-17.957,8.818,8.818a5.092,5.092,0,0,0,1.389,1,3.42,3.42,0,0,0,1.5.361,3.192,3.192,0,0,0,2.886-2.9,2.582,2.582,0,0,0-.281-1.07,4.507,4.507,0,0,0-.922-1.243L69.26,183.814a6.8,6.8,0,0,0-2.4-1.563,7.585,7.585,0,0,0-2.726-.521,7.308,7.308,0,0,0-2.672.521,6.889,6.889,0,0,0-2.374,1.552L46.894,196a6.4,6.4,0,0,0-1.563,2.365,9.887,9.887,0,0,0-.521,2.806,6.415,6.415,0,0,0,.6,3.046,12.893,12.893,0,0,0,1.643,2.686l-3.447,3.447A14.058,14.058,0,0,1,41,206.1a13.4,13.4,0,0,1-1-5.05,11.831,11.831,0,0,1,.922-4.609,11.985,11.985,0,0,1,2.605-3.888l12.1-12.1a11.2,11.2,0,0,1,3.992-2.605A12.83,12.83,0,0,1,64.193,177a12.641,12.641,0,0,1,4.546.842,11.251,11.251,0,0,1,3.968,2.605l1.443,1.443,1.443-1.443a11.2,11.2,0,0,1,3.992-2.605A12.83,12.83,0,0,1,84.154,177a12.641,12.641,0,0,1,4.546.842,11.251,11.251,0,0,1,3.968,2.605L107.018,194.8a11.64,11.64,0,0,1,2.645,4.011,12.413,12.413,0,0,1,.882,4.569,12.086,12.086,0,0,1-.882,4.527,11.745,11.745,0,0,1-2.645,3.968L80,238.887a7.408,7.408,0,0,1-2.367,1.6A7,7,0,0,1,74.877,241.051ZM67.015,197.282Z" transform="translate(-40 -177)" fill="#fff"/></svg>