<?xml version="1.0" encoding="utf-8"?>
<!-- Generator: Adobe Illustrator 27.5.0, SVG Export Plug-In . SVG Version: 6.00 Build 0)  -->
<svg version="1.1" id="Layer_1" xmlns="http://www.w3.org/2000/svg" xmlns:xlink="http://www.w3.org/1999/xlink" x="0px" y="0px"
	 viewBox="0 0 800 800" style="enable-background:new 0 0 800 800;" xml:space="preserve">
<style type="text/css">
	.st0{fill:#FFFFFF;}
</style>
<g>
	<g>
		<g>
			<path class="st0" d="M100,566.7h100c9.2,0,16.7-7.5,16.7-16.7v-66.7c0-9.2-7.5-16.7-16.7-16.7H100c-9.2,0-16.7,7.5-16.7,16.7V550
				C83.3,559.2,90.8,566.7,100,566.7z M116.7,500h66.7v33.3h-66.7V500z"/>
			<path class="st0" d="M100,400h100c9.2,0,16.7-7.5,16.7-16.7v-66.7c0-9.2-7.5-16.7-16.7-16.7H100c-9.2,0-16.7,7.5-16.7,16.7v66.7
				C83.3,392.5,90.8,400,100,400z M116.7,333.3h66.7v33.3h-66.7V333.3z"/>
			<path class="st0" d="M600,566.7h100c9.2,0,16.7-7.5,16.7-16.7v-66.7c0-9.2-7.5-16.7-16.7-16.7H600c-9.2,0-16.7,7.5-16.7,16.7V550
				C583.3,559.2,590.8,566.7,600,566.7z M616.7,500h66.7v33.3h-66.7V500z"/>
			<path class="st0" d="M600,733.3h100c9.2,0,16.7-7.5,16.7-16.7V650c0-9.2-7.5-16.7-16.7-16.7H600c-9.2,0-16.7,7.5-16.7,16.7v66.7
				C583.3,725.9,590.8,733.3,600,733.3z M616.7,666.7h66.7V700h-66.7V666.7z"/>
			<path class="st0" d="M766.7,233.3H750V200h16.7c9.2,0,16.7-7.5,16.7-16.7s-7.5-16.7-16.7-16.7H550V83.3C550,37.4,512.6,0,466.7,0
				H333.3C287.4,0,250,37.4,250,83.3v83.3H33.3c-9.2,0-16.7,7.5-16.7,16.7S24.1,200,33.3,200H50v33.3H33.3
				c-9.2,0-16.7,7.5-16.7,16.7v533.3c0,9.2,7.5,16.7,16.7,16.7h300c9.2,0,16.7-7.5,16.7-16.7v-100c0-27.6,22.4-50,50-50
				s50,22.4,50,50v100c0,9.2,7.5,16.7,16.7,16.7h300c9.2,0,16.7-7.5,16.7-16.7V250C783.3,240.8,775.9,233.3,766.7,233.3z M150,200
				h33.3v33.3H150V200z M83.3,200h33.3v33.3H83.3V200z M250,766.7H50v-500h200V766.7z M250,233.3h-33.3V200H250V233.3z M516.7,766.7
				h-33.3v-83.3c0-45.9-37.4-83.3-83.3-83.3s-83.3,37.4-83.3,83.3v83.3h-33.3V83.3c0-27.6,22.4-50,50-50h133.3c27.6,0,50,22.4,50,50
				V766.7z M683.3,200h33.3v33.3h-33.3V200z M616.7,200H650v33.3h-33.3V200z M550,200h33.3v33.3H550V200z M750,766.7H550v-500h200
				V766.7z"/>
			<path class="st0" d="M600,400h100c9.2,0,16.7-7.5,16.7-16.7v-66.7c0-9.2-7.5-16.7-16.7-16.7H600c-9.2,0-16.7,7.5-16.7,16.7v66.7
				C583.3,392.5,590.8,400,600,400z M616.7,333.3h66.7v33.3h-66.7V333.3z"/>
			<path class="st0" d="M466.7,366.7H333.3c-9.2,0-16.7,7.5-16.7,16.7v133.3c0,9.2,7.5,16.7,16.7,16.7h133.3
				c9.2,0,16.7-7.5,16.7-16.7V383.3C483.3,374.1,475.9,366.7,466.7,366.7z M450,500H350V400h100V500z"/>
			<path class="st0" d="M466.7,100H333.3c-9.2,0-16.7,7.5-16.7,16.7V250c0,9.2,7.5,16.7,16.7,16.7h133.3c9.2,0,16.7-7.5,16.7-16.7
				V116.7C483.3,107.5,475.9,100,466.7,100z M450,233.3H350v-100h100V233.3z"/>
			<path class="st0" d="M100,733.3h100c9.2,0,16.7-7.5,16.7-16.7V650c0-9.2-7.5-16.7-16.7-16.7H100c-9.2,0-16.7,7.5-16.7,16.7v66.7
				C83.3,725.9,90.8,733.3,100,733.3z M116.7,666.7h66.7V700h-66.7V666.7z"/>
		</g>
	</g>
</g>
</svg>
