<svg xmlns="http://www.w3.org/2000/svg" xmlns:xlink="http://www.w3.org/1999/xlink" width="39.992" height="54.278" viewBox="0 0 39.992 54.278"><defs><clipPath id="a"><path d="M218.884,21.636a20.265,20.265,0,0,0-5.8,7.688,33.026,33.026,0,0,0-.771,25.563,20.546,20.546,0,0,0,7.3,10.044,12.043,12.043,0,0,0,12.729,1.318,17.439,17.439,0,0,0,7.743-7.552,31.065,31.065,0,0,0,3.954-15.663,32.392,32.392,0,0,0-2.147-11.927,22.079,22.079,0,0,0-6.42-9.339,13.18,13.18,0,0,0-8.39-3.206,13,13,0,0,0-8.195,3.073" transform="translate(-210.112 -18.563)" fill="none"/></clipPath><linearGradient id="b" x1="-1.206" y1="1.246" x2="-1.2" y2="1.246" gradientUnits="objectBoundingBox"><stop offset="0" stop-color="#22c7e5"/><stop offset="0.5" stop-color="#7de3e5"/><stop offset="1" stop-color="#22c7e5"/></linearGradient></defs><g transform="translate(-57.123 -20.918)"><g transform="translate(60.156 22.799)"><g transform="translate(0 0)" clip-path="url(#a)"><rect width="34.866" height="49.741" transform="translate(-0.938 0)" fill="url(#b)"/></g></g><g transform="translate(57.123 20.918)"><path d="M265.5,83.638a9.721,9.721,0,0,0-2.352-1.89q-3.572-2-7.141-4a9.018,9.018,0,0,1-2.08-1.6,3.3,3.3,0,0,1,.647-5.232,5.749,5.749,0,0,1,1.744-.687c.376-.088.566-.031.561.438-.023,1.986,0,3.974-.021,5.96a.77.77,0,0,0,.482.8c.924.48,1.828,1,2.743,1.5.125.068.24.187.458.121v-.574c0-3.228,0-6.457,0-9.686,0-.923.116-1.745,1.245-1.927.189-.03.23-.156.211-.326-.022-.2-.171-.175-.3-.175q-3,0-6.01,0c-.136,0-.267,0-.289.191a.246.246,0,0,0,.237.306,1.593,1.593,0,0,1,.188.062,1.249,1.249,0,0,1,1.042,1.319c.046.954.038.918-.9,1.128a6.31,6.31,0,0,0-5.14,4.617,5.814,5.814,0,0,0,2.243,6.465,21.722,21.722,0,0,0,3.41,2.115.607.607,0,0,1,.4.6c-.017,2.2,0,4.4-.013,6.606A1.267,1.267,0,0,1,255.77,91.2c-.2.058-.41.081-.372.361.043.323.3.194.473.195q2.806.014,5.613,0c.175,0,.465.16.51-.2.039-.316-.218-.31-.42-.371a1.181,1.181,0,0,1-.992-1.246c-.032-.429-.036-.86-.038-1.29-.005-1.109-.009-2.219,0-3.328,0-.136-.117-.515.266-.321a7.229,7.229,0,0,1,3.513,3.162,4.089,4.089,0,0,1-.8,4.76,5.673,5.673,0,0,1-5.127,1.526,8.012,8.012,0,0,1-6.843-5.766c-.064-.193-.1-.4-.379-.352s-.175.284-.175.437q-.013,2.856,0,5.712c0,.157-.116.386.142.464.215.065.325-.091.444-.237a1.9,1.9,0,0,1,.759-.58,1.762,1.762,0,0,1,1.049-.1,22.845,22.845,0,0,1,4.326,1.342,8.533,8.533,0,0,0,5.928-.935,7.331,7.331,0,0,0,3.736-4.92,7.257,7.257,0,0,0-1.892-5.876" transform="translate(-238.974 -53.323)" fill="#fff"/><path d="M282.876,43.824a2.174,2.174,0,0,0,2.109-1.7,2.134,2.134,0,0,0-1.317-2.447c-.15-.06-.337-.034-.449-.184h-.6c-.126.129-.307.112-.459.169a2.164,2.164,0,0,0-1.392,2.324,2.194,2.194,0,0,0,2.1,1.835" transform="translate(-263.222 -31.739)" fill="#fff"/><path d="M304.975,84.26a6.63,6.63,0,0,1,2.931,4.638c.032.211.107.333.346.319.274-.016.2-.217.2-.364q.007-2.756,0-5.513c0-.136.055-.315-.165-.357a.337.337,0,0,0-.379.167,1.409,1.409,0,0,1-1.785.549c-.454-.132-.9-.3-1.391-.473.056.387-.173.751.237,1.033" transform="translate(-282.49 -66.678)" fill="#fff"/><path d="M230.346,18.1a26.584,26.584,0,0,0-8.134-13.962A15.894,15.894,0,0,0,209.737.082,16.151,16.151,0,0,0,199.56,5.252c-4.46,4.58-6.733,10.227-7.664,16.465-.162,1.1-.256,2.2-.376,3.315V29.15a3.4,3.4,0,0,1,.1.5,31.629,31.629,0,0,0,2.931,11.988,23.229,23.229,0,0,0,8.339,10.082,15.744,15.744,0,0,0,17.849-.436,23.939,23.939,0,0,0,8.126-10.655A35.476,35.476,0,0,0,230.346,18.1m-6.066,26.949a17.292,17.292,0,0,1-9.706,7.117,12.154,12.154,0,0,1-8.288-.718c-4.973-2.2-8.057-6.2-10.219-11.014a31.379,31.379,0,0,1-2.64-11.014,32.2,32.2,0,0,1,3.443-17.243,20.036,20.036,0,0,1,7.793-8.527,12.954,12.954,0,0,1,14.406.453,21.236,21.236,0,0,1,7.664,9.3,33.267,33.267,0,0,1,2.914,14.167,30.6,30.6,0,0,1-5.366,17.473" transform="translate(-191.52 0)"/></g></g></svg>