<svg xmlns="http://www.w3.org/2000/svg" xmlns:xlink="http://www.w3.org/1999/xlink" width="288" height="88.469" viewBox="0 0 288 88.469"><defs><clipPath id="a"><rect width="288" height="88.469" fill="none"/></clipPath><clipPath id="b"><path d="M218.884,21.636a20.265,20.265,0,0,0-5.8,7.688,33.026,33.026,0,0,0-.771,25.563,20.546,20.546,0,0,0,7.3,10.044,12.043,12.043,0,0,0,12.729,1.318,17.439,17.439,0,0,0,7.743-7.552,31.065,31.065,0,0,0,3.954-15.663,32.392,32.392,0,0,0-2.147-11.927,22.079,22.079,0,0,0-6.42-9.339,13.18,13.18,0,0,0-8.39-3.206,13,13,0,0,0-8.195,3.073" transform="translate(-210.112 -18.563)" fill="none"/></clipPath><linearGradient id="c" x1="-1.206" y1="1.246" x2="-1.2" y2="1.246" gradientUnits="objectBoundingBox"><stop offset="0" stop-color="#22c7e5"/><stop offset="0.5" stop-color="#7de3e5"/><stop offset="1" stop-color="#22c7e5"/></linearGradient><clipPath id="d"><rect width="287.999" height="88.469" fill="none"/></clipPath></defs><g clip-path="url(#a)"><g transform="translate(60.156 22.799)"><g transform="translate(0 0)" clip-path="url(#b)"><rect width="34.866" height="49.741" transform="translate(-0.938 0)" fill="url(#c)"/></g></g><g clip-path="url(#d)"><g transform="translate(57.123 20.918)"><path d="M265.5,83.638a9.721,9.721,0,0,0-2.352-1.89q-3.572-2-7.141-4a9.018,9.018,0,0,1-2.08-1.6,3.3,3.3,0,0,1,.647-5.232,5.749,5.749,0,0,1,1.744-.687c.376-.088.566-.031.561.438-.023,1.986,0,3.974-.021,5.96a.77.77,0,0,0,.482.8c.924.48,1.828,1,2.743,1.5.125.068.24.187.458.121v-.574c0-3.228,0-6.457,0-9.686,0-.923.116-1.745,1.245-1.927.189-.03.23-.156.211-.326-.022-.2-.171-.175-.3-.175q-3,0-6.01,0c-.136,0-.267,0-.289.191a.246.246,0,0,0,.237.306,1.593,1.593,0,0,1,.188.062,1.249,1.249,0,0,1,1.042,1.319c.046.954.038.918-.9,1.128a6.31,6.31,0,0,0-5.14,4.617,5.814,5.814,0,0,0,2.243,6.465,21.722,21.722,0,0,0,3.41,2.115.607.607,0,0,1,.4.6c-.017,2.2,0,4.4-.013,6.606A1.267,1.267,0,0,1,255.77,91.2c-.2.058-.41.081-.372.361.043.323.3.194.473.195q2.806.014,5.613,0c.175,0,.465.16.51-.2.039-.316-.218-.31-.42-.371a1.181,1.181,0,0,1-.992-1.246c-.032-.429-.036-.86-.038-1.29-.005-1.109-.009-2.219,0-3.328,0-.136-.117-.515.266-.321a7.229,7.229,0,0,1,3.513,3.162,4.089,4.089,0,0,1-.8,4.76,5.673,5.673,0,0,1-5.127,1.526,8.012,8.012,0,0,1-6.843-5.766c-.064-.193-.1-.4-.379-.352s-.175.284-.175.437q-.013,2.856,0,5.712c0,.157-.116.386.142.464.215.065.325-.091.444-.237a1.9,1.9,0,0,1,.759-.58,1.762,1.762,0,0,1,1.049-.1,22.845,22.845,0,0,1,4.326,1.342,8.533,8.533,0,0,0,5.928-.935,7.331,7.331,0,0,0,3.736-4.92,7.257,7.257,0,0,0-1.892-5.876" transform="translate(-238.974 -53.323)" fill="#fff"/><path d="M282.876,43.824a2.174,2.174,0,0,0,2.109-1.7,2.134,2.134,0,0,0-1.317-2.447c-.15-.06-.337-.034-.449-.184h-.6c-.126.129-.307.112-.459.169a2.164,2.164,0,0,0-1.392,2.324,2.194,2.194,0,0,0,2.1,1.835" transform="translate(-263.222 -31.739)" fill="#fff"/><path d="M304.975,84.26a6.63,6.63,0,0,1,2.931,4.638c.032.211.107.333.346.319.274-.016.2-.217.2-.364q.007-2.756,0-5.513c0-.136.055-.315-.165-.357a.337.337,0,0,0-.379.167,1.409,1.409,0,0,1-1.785.549c-.454-.132-.9-.3-1.391-.473.056.387-.173.751.237,1.033" transform="translate(-282.49 -66.678)" fill="#fff"/><path d="M230.346,18.1a26.584,26.584,0,0,0-8.134-13.962A15.894,15.894,0,0,0,209.737.082,16.151,16.151,0,0,0,199.56,5.252c-4.46,4.58-6.733,10.227-7.664,16.465-.162,1.1-.256,2.2-.376,3.315V29.15a3.4,3.4,0,0,1,.1.5,31.629,31.629,0,0,0,2.931,11.988,23.229,23.229,0,0,0,8.339,10.082,15.744,15.744,0,0,0,17.849-.436,23.939,23.939,0,0,0,8.126-10.655A35.476,35.476,0,0,0,230.346,18.1m-6.066,26.949a17.292,17.292,0,0,1-9.706,7.117,12.154,12.154,0,0,1-8.288-.718c-4.973-2.2-8.057-6.2-10.219-11.014a31.379,31.379,0,0,1-2.64-11.014,32.2,32.2,0,0,1,3.443-17.243,20.036,20.036,0,0,1,7.793-8.527,12.954,12.954,0,0,1,14.406.453,21.236,21.236,0,0,1,7.664,9.3,33.267,33.267,0,0,1,2.914,14.167,30.6,30.6,0,0,1-5.366,17.473" transform="translate(-191.52 0)"/></g><rect width="175.052" height="2.746" transform="translate(101.185 67.045)"/><rect width="47.821" height="2.746" transform="translate(0.695 67.045)"/><path d="M0,158.586v-.656c2.391-.369,2.584-.584,2.584-3.436V142.086c0-2.862-.243-3.108-2.584-3.423v-.656H9.127v.656c-2.342.364-2.608.539-2.608,3.423v12.384c0,2.911.214,3.082,2.608,3.459v.656Z" transform="translate(0 -100.051)"/><path d="M53.217,141.491c-.651-2.464-1.991-4.229-4.566-4.229-1.916,0-3.018,1.329-3.018,3.284s1.139,2.937,3.862,4.49c2.874,1.625,5.252,3.311,5.252,6.592,0,3.642-3.062,6.265-7.318,6.265a18.67,18.67,0,0,1-4.889-.822c-.191-.646-.679-4.213-.757-4.964l.675-.14c.674,2.534,2.492,5.058,5.47,5.058,2.153,0,3.169-1.455,3.169-3.554,0-1.987-1.189-3.322-3.536-4.7-2.934-1.736-5.216-3.337-5.216-6.575,0-3.255,2.562-5.8,6.864-5.8a27.851,27.851,0,0,1,4.128.455c.127,1.168.321,2.869.551,4.5Z" transform="translate(-30.292 -98.883)"/><path d="M109.754,136.4a10.269,10.269,0,0,1,10.354,10.53c0,6.65-4.686,10.968-10.472,10.968a10.38,10.38,0,0,1-10.581-10.626c0-5.433,3.913-10.871,10.7-10.871m-.6.928c-3.165,0-5.574,3.124-5.574,9.232,0,5.8,2.394,10.407,6.583,10.407,3.167,0,5.42-3.13,5.42-9.191,0-6.549-2.549-10.447-6.428-10.447" transform="translate(-71.812 -98.883)"/><path d="M414.427,157.6v-.656c2.119-.421,2.168-.764,1.638-2.315-.367-1.041-.912-2.669-1.548-4.371h-5.923c-.5,1.376-1,2.757-1.37,3.881-.712,2.093-.331,2.367,2.347,2.805v.656h-7.079v-.656c2.051-.324,2.492-.695,3.6-3.485l6.562-16.653.988-.16c2,5.587,4.081,11.145,6.164,16.644,1.115,3,1.427,3.279,3.394,3.654v.656Zm-2.8-15.583c-.969,2.554-1.749,4.74-2.619,7.091h5.082Z" transform="translate(-303.558 -99.061)"/><path d="M494.521,141.491c-.651-2.464-1.991-4.229-4.566-4.229-1.916,0-3.018,1.329-3.018,3.284s1.139,2.937,3.862,4.49c2.874,1.625,5.252,3.311,5.252,6.592,0,3.642-3.062,6.265-7.318,6.265a18.67,18.67,0,0,1-4.889-.822c-.191-.646-.679-4.213-.757-4.964l.675-.14c.674,2.534,2.492,5.058,5.47,5.058,2.153,0,3.169-1.455,3.169-3.554,0-1.987-1.189-3.322-3.536-4.7-2.934-1.736-5.216-3.337-5.216-6.575,0-3.255,2.562-5.8,6.864-5.8a27.851,27.851,0,0,1,4.128.455c.126,1.168.321,2.869.551,4.5Z" transform="translate(-361.986 -98.883)"/><path d="M551.271,141.491c-.651-2.464-1.991-4.229-4.566-4.229-1.916,0-3.018,1.329-3.018,3.284s1.139,2.937,3.862,4.49c2.874,1.625,5.252,3.311,5.252,6.592,0,3.642-3.062,6.265-7.318,6.265a18.67,18.67,0,0,1-4.89-.822c-.191-.646-.679-4.213-.757-4.964l.675-.14c.674,2.534,2.492,5.058,5.47,5.058,2.153,0,3.169-1.455,3.169-3.554,0-1.987-1.189-3.322-3.536-4.7-2.934-1.736-5.216-3.337-5.216-6.575,0-3.255,2.563-5.8,6.864-5.8a27.853,27.853,0,0,1,4.128.455c.126,1.168.321,2.869.551,4.5Z" transform="translate(-403.129 -98.883)"/><path d="M613.7,138.664c-2.374.266-2.513,1.064-2.614,2.345-.068.937-.133,2.082-.133,4.431v3.848c0,3.169-.324,5.725-2.085,7.624a7.651,7.651,0,0,1-5.818,2.149,8.621,8.621,0,0,1-5.56-1.678c-1.733-1.4-2.427-3.365-2.427-6.718v-8.194c0-3.152-.212-3.463-2.595-3.806v-.656h9.1v.656c-2.42.389-2.567.655-2.567,3.806v8.537c0,4.054,1.93,6.2,5.449,6.2,3.857,0,5.325-2.24,5.325-7.9v-3.872c0-2.34-.069-3.56-.155-4.531-.125-1.531-.618-2.04-3.26-2.243v-.656H613.7Z" transform="translate(-441.287 -100.052)"/><path d="M694.317,158.8c-.174,0-.932,0-1.3-.01-3.772-.166-4.806-.9-5.868-2.506a62.794,62.794,0,0,1-3.169-5.492c-.651-1.221-1.112-1.546-2.208-1.546l-.561-.007v5.37c0,2.628.224,2.877,2.586,3.322v.656h-9.038v-.656c2.367-.44,2.584-.646,2.584-3.322V141.953c0-2.614-.222-2.954-2.584-3.289v-.656h8.614c2.62,0,4.216.295,5.505,1.2a4.482,4.482,0,0,1,1.955,3.857c0,3.076-2.265,4.538-4.009,5.26.482.889,2.045,3.572,2.95,5a26.011,26.011,0,0,0,2.351,3.376,4.188,4.188,0,0,0,2.321,1.5Zm-12.352-10.418c1.489,0,2.571-.147,3.323-.841a4.6,4.6,0,0,0,1.343-3.77c0-3.586-1.867-4.9-3.716-4.9a2.372,2.372,0,0,0-1.373.248c-.226.168-.336.43-.336,1.084v8.177Z" transform="translate(-500.94 -100.052)"/><path d="M758.159,157.6v-.656c2.119-.421,2.168-.764,1.637-2.315-.367-1.041-.912-2.669-1.548-4.371h-5.923c-.5,1.376-1,2.757-1.37,3.881-.712,2.093-.331,2.367,2.347,2.805v.656h-7.079v-.656c2.051-.324,2.492-.695,3.6-3.485l6.562-16.653.988-.16c2,5.587,4.081,11.145,6.164,16.644,1.115,3,1.427,3.279,3.394,3.654v.656Zm-2.8-15.583c-.969,2.554-1.749,4.74-2.619,7.091h5.082Z" transform="translate(-552.754 -99.061)"/><path d="M843.521,138.664c-2.061.4-2.553.763-2.624,2.742-.046,1.031-.117,1.885-.117,5.025V159h-1.005L825.8,142.18v7.935c0,2.9.041,3.905.11,4.918.123,1.958.444,2.555,3.22,2.9v.656H821.7v-.656c2.238-.312,2.633-.778,2.77-2.8.077-1.123.162-2.336.162-5.014v-8.164a2.96,2.96,0,0,0-.541-1.867,3.358,3.358,0,0,0-2.763-1.418v-.656H827.3l12.317,14.4v-5.977c0-3.14-.077-4-.125-4.964-.1-2-.76-2.5-3.476-2.8v-.656h7.5Z" transform="translate(-607.2 -100.052)"/><path d="M927.768,152.28a37.646,37.646,0,0,1-1.588,4.862,27.811,27.811,0,0,1-5.483.75c-8.242,0-11.744-5.188-11.744-10.634,0-6.353,4.72-10.863,12.177-10.863a36.506,36.506,0,0,1,5.689.665c.09,1.576.308,3.59.483,4.914l-.731.148c-.638-2.281-1.449-3.487-3.2-4.265a7.157,7.157,0,0,0-3.028-.54c-4.761,0-6.893,4.156-6.893,9.312,0,6.048,2.9,10.3,7.557,10.3,2.913,0,4.621-1.7,6.086-4.908Z" transform="translate(-670.729 -98.883)"/><path d="M1001.231,153.378c-.159,1.044-.8,4.241-1.021,5.042H984.591v-.649c2.765-.356,2.978-.519,2.978-3.287v-12.7c0-2.807-.208-3.042-2.447-3.291v-.656h9.721c3.133,0,4.325-.03,4.64-.063.03,1.049.164,3.222.312,4.7l-.674.109a8.332,8.332,0,0,0-1.337-2.8c-.57-.7-1.188-.881-3-.881h-2.364c-.8,0-.923.111-.923.86V147.1h3.126c2.318,0,2.473-.629,2.92-2.667h.674v6.436h-.674c-.462-2-.6-2.667-2.924-2.667H991.5v6.48c0,2.2.4,2.653,2.351,2.683h2.031c1.831,0,2.279-.248,3.048-1.119a11.734,11.734,0,0,0,1.668-3.007Z" transform="translate(-725.563 -99.885)"/></g></g></svg>