<svg xmlns="http://www.w3.org/2000/svg" width="77.302" height="76.335" viewBox="0 0 77.302 76.335"><path d="M174.111,265.28a11.547,11.547,0,1,1,8.213-3.382A11.182,11.182,0,0,1,174.111,265.28Zm-23.19,27.055V281.126a7.906,7.906,0,0,1,.966-3.817,7.421,7.421,0,0,1,2.706-2.851,41.669,41.669,0,0,1,5.6-2.85,42.113,42.113,0,0,1,5.991-1.981l7.923,10.242,7.923-10.242a40.2,40.2,0,0,1,5.943,1.981,43.105,43.105,0,0,1,5.556,2.85,7.794,7.794,0,0,1,2.754,2.851,7.61,7.61,0,0,1,1.015,3.817v11.209Zm-5.8-11.209v4.445H125.8a5.815,5.815,0,0,1-5.8-5.8V221.8a5.815,5.815,0,0,1,5.8-5.8h57.976a5.815,5.815,0,0,1,5.8,5.8v23.867a16.791,16.791,0,0,0-6.377-6.861,17.229,17.229,0,0,0-9.083-2.512V231.46H135.46v5.8h32.95a18.181,18.181,0,0,0-6.522,4.155,17.438,17.438,0,0,0-4.2,6.474H135.46v5.8h21.258a16.822,16.822,0,0,0,.966,5.7,17.476,17.476,0,0,0,2.706,4.928H135.46v5.8h15.17a13.268,13.268,0,0,0-4.058,4.88A13.738,13.738,0,0,0,145.123,281.126Z" transform="translate(-120 -216)" fill="#fff"/></svg>