<?xml version="1.0" encoding="utf-8"?>
<!-- Generator: Adobe Illustrator 27.5.0, SVG Export Plug-In . SVG Version: 6.00 Build 0)  -->
<svg version="1.1" id="Calque_1" xmlns="http://www.w3.org/2000/svg" xmlns:xlink="http://www.w3.org/1999/xlink" x="0px" y="0px"
	 viewBox="0 0 1514 1866.1" style="enable-background:new 0 0 1514 1866.1;" xml:space="preserve">
<style type="text/css">
	.st0{opacity:0.8;fill:#C34747;enable-background:new    ;}
	.st1{clip-path:url(#SVGID_00000177456421338166978460000005543799723495870394_);}
	.st2{fill:#FFFFFF;}
</style>
<g id="Groupe_3221" transform="translate(-203 -161.234)">
	<path id="Tracé_9767" class="st0" d="M233,161.2h1454c16.6,0,30,22.5,30,50.2v1765.8c0,27.7-13.4,50.2-30,50.2H233
		c-16.6,0-30-22.5-30-50.2V211.4C203,183.7,216.4,161.2,233,161.2z"/>
	<g id="Composant_5_11" transform="translate(203 161.234)">
		<g id="Groupe_3033">
			<g>
				<defs>
					<path id="SVGID_1_" d="M30,0h1454c16.6,0,30,19.1,30,42.6v1500.9c0,23.6-13.4,42.6-30,42.6H30c-16.6,0-30-19.1-30-42.6V42.6
						C0,19.1,13.4,0,30,0z"/>
				</defs>
				<clipPath id="SVGID_00000172430154534507899950000013132576268460581248_">
					<use xlink:href="#SVGID_1_"  style="overflow:visible;"/>
				</clipPath>
				<g id="Groupe_de_masques_3" style="clip-path:url(#SVGID_00000172430154534507899950000013132576268460581248_);">
					<path id="Tracé_9202" class="st2" d="M582.8-140.9c0,0,31.1,398.6,201.6,574.3s351.3,102.9,496.5,205.7s253.4,21.4,253.4,21.4
						V-72.4L582.8-140.9z"/>
				</g>
			</g>
		</g>
	</g>
</g>
</svg>
