<svg xmlns="http://www.w3.org/2000/svg" width="111.517" height="76.264" viewBox="0 0 111.517 76.264"><g transform="translate(0)"><path d="M52.648,8.319V6.051h2.963V4.616a5,5,0,0,1,9.972,0V6.051h2.9V8.319Z" transform="translate(6.064 0)" fill="#fff"/><path d="M77.188,49.4A10.588,10.588,0,1,0,87.766,59.985,10.587,10.587,0,0,0,77.188,49.4Zm0,15.653a5.063,5.063,0,1,1,5.06-5.065A5.064,5.064,0,0,1,77.185,65.052Z" transform="translate(7.671 5.69)" fill="#fff"/><path d="M22.831,49.307A10.586,10.586,0,1,0,33.419,59.9,10.59,10.59,0,0,0,22.831,49.307Zm.023,15.664a5.063,5.063,0,1,1,5.064-5.065A5.064,5.064,0,0,1,22.855,64.971Z" transform="translate(1.411 5.679)" fill="#fff"/><path d="M102.627,34.443c3.162.616,5.055,1.982,6.483,9.785l2.257,14.085c.813,4.583-1.778,6.255-5.006,6.255H98.6a13.75,13.75,0,1,0-27.5,0H37.958a13.752,13.752,0,1,0-27.5,0H4.027A3.925,3.925,0,0,1,0,60.643V14.332A4.491,4.491,0,0,1,4.433,9.781H87.656A6.748,6.748,0,0,1,94.273,14.1ZM74.886,14.5V33.739H97.131L89.328,14.5ZM54.986,31.27v-11.8h-11.8v11.8H31.376V43.077H43.182v11.8h11.8v-11.8h11.8V31.27Z" transform="translate(0 1.127)" fill="#fff"/></g></svg>