<svg xmlns="http://www.w3.org/2000/svg" width="26.025" height="26.024" viewBox="0 0 26.025 26.024">
<path d="M12.133,23.258l4.88-4.88,4.88,4.88,1.366-1.366-4.88-4.88,4.88-4.88-1.366-1.366-4.88,4.88-4.88-4.88-1.366,1.366,4.88,4.88-4.88,4.88Zm4.88,6.766A12.591,12.591,0,0,1,11.97,29a13.11,13.11,0,0,1-6.945-6.945,13,13,0,0,1,0-10.117,13,13,0,0,1,2.8-4.131A13.339,13.339,0,0,1,11.97,5.025a13,13,0,0,1,10.117,0A12.992,12.992,0,0,1,29,11.937a13,13,0,0,1,0,10.117A13.339,13.339,0,0,1,26.218,26.2,13,13,0,0,1,22.087,29,12.671,12.671,0,0,1,17.012,30.025Zm0-1.952a10.643,10.643,0,0,0,7.84-3.237,10.686,10.686,0,0,0,3.221-7.824,10.67,10.67,0,0,0-3.221-7.84,10.67,10.67,0,0,0-7.84-3.221A10.686,10.686,0,0,0,9.189,9.172a10.643,10.643,0,0,0-3.237,7.84,10.659,10.659,0,0,0,3.237,7.824A10.659,10.659,0,0,0,17.012,28.073ZM17.012,17.012Z" transform="translate(-4 -4)" fill="#0000008c"/></svg>