<svg xmlns="http://www.w3.org/2000/svg" width="137.125" height="137.125" viewBox="0 0 137.125 137.125"><path d="M45.309,104.787,72.563,92.446l27.254,12.341.857-.857L72.563,35.882,44.452,103.93Zm27.254,36.338a66.341,66.341,0,0,1-26.568-5.4,69.078,69.078,0,0,1-36.6-36.6A66.341,66.341,0,0,1,4,72.563,66.763,66.763,0,0,1,9.4,45.823,68.52,68.52,0,0,1,24.14,24.055,70.283,70.283,0,0,1,45.995,9.4,66.341,66.341,0,0,1,72.563,4,66.763,66.763,0,0,1,99.3,9.4a68.456,68.456,0,0,1,36.424,36.424,66.763,66.763,0,0,1,5.4,26.739,66.341,66.341,0,0,1-5.4,26.568,70.283,70.283,0,0,1-14.655,21.854A68.52,68.52,0,0,1,99.3,135.726,66.763,66.763,0,0,1,72.563,141.125Zm0-10.284q24.34,0,41.309-17.055a56.3,56.3,0,0,0,16.969-41.223q0-24.34-16.969-41.309T72.563,14.284A56.3,56.3,0,0,0,31.339,31.254Q14.284,48.223,14.284,72.563a56.161,56.161,0,0,0,17.055,41.223A56.161,56.161,0,0,0,72.563,130.841ZM72.563,72.563Z" transform="translate(-4 -4)" fill="#69b419"/></svg>