<svg xmlns="http://www.w3.org/2000/svg" width="34.249" height="40.004" viewBox="0 0 34.249 40.004"><path d="M137.219,215V212.15h14.175v-2.569h-7.04V195.5h7.04v-3.235a14.064,14.064,0,0,0-4.138-10.156,13.477,13.477,0,0,0-10.037-4.257,14.5,14.5,0,0,0-14.365,14.413V195.5h7.04v14.08h-7.04A2.926,2.926,0,0,1,120,206.727v-14.46a16.755,16.755,0,0,1,1.356-6.7,17.674,17.674,0,0,1,3.686-5.5,17.194,17.194,0,0,1,5.48-3.71A16.781,16.781,0,0,1,137.229,175a16.543,16.543,0,0,1,6.674,1.356,16.767,16.767,0,0,1,5.4,3.71,17.7,17.7,0,0,1,3.615,5.5,17.04,17.04,0,0,1,1.329,6.7V212.15A2.926,2.926,0,0,1,151.394,215Zm-14.365-8.277h4.186v-8.372h-4.186Zm24.355,0h4.186v-8.372h-4.186Zm4.186,0h0Zm-24.355,0h0Z" transform="translate(-120 -175)" fill="#fff"/></svg>