<svg xmlns="http://www.w3.org/2000/svg" width="81.167" height="77.301" viewBox="0 0 81.167 77.301"><path d="M60.292,253.3A12.536,12.536,0,0,1,47.73,240.74V207.79q-2.319-2.222-5.025-4.783A8.153,8.153,0,0,1,40,196.871a5.444,5.444,0,0,1,5.411-5.411,4.968,4.968,0,0,1,2.9.87,13.787,13.787,0,0,1,2.319,2.029A12.931,12.931,0,0,1,53,192.33a5.035,5.035,0,0,1,2.85-.87,5.444,5.444,0,0,1,5.411,5.411,8.153,8.153,0,0,1-2.706,6.136q-2.706,2.561-5.025,4.783v32.95a6.764,6.764,0,1,0,13.528,0v-45.9A18.8,18.8,0,0,1,85.9,176a18.8,18.8,0,0,1,18.842,18.842v.676a18.908,18.908,0,0,1,11.692,6.474,18.619,18.619,0,0,1,4.735,12.658v19.325a19.336,19.336,0,0,1-33,13.673,18.625,18.625,0,0,1-5.653-13.673V214.651a18.619,18.619,0,0,1,4.735-12.658,18.908,18.908,0,0,1,11.692-6.474v-.676a13.119,13.119,0,0,0-22.321-9.276,12.607,12.607,0,0,0-3.768,9.276v45.9A12.536,12.536,0,0,1,60.292,253.3Zm41.55-27.055a7.753,7.753,0,1,0,5.459,2.271A7.444,7.444,0,0,0,101.841,226.246Z" transform="translate(-40 -176)" fill="#fff"/></svg>