<?xml version="1.0" encoding="utf-8"?>
<!-- Generator: Adobe Illustrator 27.5.0, SVG Export Plug-In . SVG Version: 6.00 Build 0)  -->
<svg version="1.1" id="Calque_1" xmlns="http://www.w3.org/2000/svg" xmlns:xlink="http://www.w3.org/1999/xlink" x="0px" y="0px"
	 viewBox="0 0 81.2 77.3" style="enable-background:new 0 0 81.2 77.3;" xml:space="preserve">
<style type="text/css">
	.st0{fill:#1E85F1;}
</style>
<path class="st0" d="M20.3,77.3c-6.9,0-12.5-5.6-12.6-12.5c0,0,0,0,0-0.1v-33c-1.5-1.5-3.2-3.1-5-4.8C1,25.4,0,23.2,0,20.9
	c0-3,2.4-5.4,5.4-5.4c1,0,2,0.3,2.9,0.9c0.8,0.6,1.6,1.3,2.3,2c0.7-0.8,1.5-1.5,2.4-2c0.8-0.6,1.8-0.9,2.8-0.9c3,0,5.4,2.4,5.4,5.4
	c0,2.3-1,4.6-2.7,6.1c-1.8,1.7-3.5,3.3-5,4.8v32.9c0,3.7,3,6.8,6.8,6.8s6.8-3,6.8-6.8V18.8C27,8.5,35.4,0,45.8,0c0,0,0.1,0,0.1,0
	c10.4,0,18.8,8.4,18.8,18.8c0,0,0,0.1,0,0.1v0.7c4.6,0.7,8.7,3,11.7,6.5c3.1,3.5,4.8,8,4.7,12.7V58c0,10.7-8.7,19.3-19.3,19.3
	c-5.1,0-10-2-13.7-5.7c-3.7-3.6-5.7-8.5-5.7-13.7V38.7c-0.1-4.7,1.6-9.2,4.7-12.7c3-3.5,7.1-5.8,11.7-6.5v-0.7
	c0-7.2-5.9-13.1-13.2-13c-3.4,0-6.7,1.4-9.1,3.8c-2.5,2.4-3.8,5.8-3.8,9.3v45.9C32.9,71.7,27.3,77.3,20.3,77.3
	C20.3,77.3,20.3,77.3,20.3,77.3z M61.8,50.2c-4.3,0-7.8,3.4-7.8,7.7c0,4.3,3.4,7.8,7.7,7.8s7.8-3.4,7.8-7.7c0-2.1-0.8-4-2.3-5.5
	C65.9,51,63.9,50.2,61.8,50.2L61.8,50.2z"/>
</svg>
