<svg xmlns="http://www.w3.org/2000/svg" xmlns:xlink="http://www.w3.org/1999/xlink" width="1514" height="548.532" viewBox="0 0 1514 548.532">
  <defs>
    <clipPath id="clip-path">
      <path id="Tracé_9204" data-name="Tracé 9204" d="M30,0H1484c16.569,0,30,6.6,30,14.745V533.787c0,8.144-13.431,14.745-30,14.745H30c-16.569,0-30-6.6-30-14.745V14.745C0,6.6,13.431,0,30,0Z" transform="translate(204 2049)" fill="#fff" stroke="rgba(255,255,255,0.28)" stroke-width="1"/>
    </clipPath>
  </defs>
  <g id="Groupe_3217" data-name="Groupe 3217" transform="translate(656 80)">
    <path id="Tracé_9203" data-name="Tracé 9203" d="M30,0H1484c16.569,0,30,6.6,30,14.745V533.787c0,8.144-13.431,14.745-30,14.745H30c-16.569,0-30-6.6-30-14.745V14.745C0,6.6,13.431,0,30,0Z" transform="translate(-656 -80)" fill="#69b419" opacity="0.8"/>
    <g id="Groupe_de_masques_3" data-name="Groupe de masques 3" transform="translate(-860 -2129)" clip-path="url(#clip-path)">
      <path id="Tracé_9202" data-name="Tracé 9202" d="M8760.73,1954.373s50.788,310.718,328.921,447.7,573.2,80.185,810.215,160.37,413.572,16.7,413.572,16.7V2007.829Z" transform="translate(-8556.73 23.924)" fill="#fff"/>
    </g>
  </g>
</svg>
